HIERARCHY
ROOT pelvis
{
  OFFSET 0 100 0
  CHANNELS 6 Xposition Yposition Zposition Zrotation Xrotation Yrotation
  JOINT pelvis_right_femur
  {
    OFFSET -10.78128 -3.44521 -0.5502486
    CHANNELS 3 Zrotation Xrotation Yrotation
    JOINT right_femur_tibia
    {
      OFFSET -0.8047443 -44.0398 -0.1307829
      CHANNELS 3 Zrotation Xrotation Yrotation
      JOINT right_tibia_foot
      {
        OFFSET 3.006224 -47.83518 -5
        CHANNELS 3 Zrotation Xrotation Yrotation
        End Site
        {
          OFFSET 0 -5 15
        }
      }
    }
  }
  JOINT pelvis_left_femur
  {
    OFFSET 10.78128 -3.44521 -0.5502486
    CHANNELS 3 Zrotation Xrotation Yrotation
    JOINT left_femur_tibia
    {
      OFFSET 0.8047443 -44.0398 -0.1307829
      CHANNELS 3 Zrotation Xrotation Yrotation
      JOINT left_tibia_foot
      {
        OFFSET -4.370144 -48.10324 -4.275266
        CHANNELS 3 Zrotation Xrotation Yrotation
        End Site
        {
          OFFSET 0 -5 15
        }
      }
    }
  }
  JOINT pelvis_spine1
  {
    OFFSET 0 6.468898 -3.129235
    CHANNELS 3 Zrotation Xrotation Yrotation
    JOINT spine1
    {
      OFFSET 0 23.15396 4.99043
      CHANNELS 3 Zrotation Xrotation Yrotation
      JOINT spine2
      {
        OFFSET 0 20.79997 -5.064912
        CHANNELS 3 Zrotation Xrotation Yrotation
        JOINT neck
        {
          OFFSET 0 14.38658 9.616178
          CHANNELS 3 Zrotation Xrotation Yrotation
          End Site
          {
            OFFSET 0 20 0
          }
        }
      }
      JOINT right_manubrium
      {
        OFFSET -5.722621 16.35077 3.967754
        CHANNELS 3 Zrotation Xrotation Yrotation
        JOINT right_clavicle
        {
          OFFSET -13.16364 1.694482 -4.693211
          CHANNELS 3 Zrotation Xrotation Yrotation
          JOINT right_humerus
          {
            OFFSET -28.5034 -0.3100689 -2.792744
            CHANNELS 3 Zrotation Xrotation Yrotation
            JOINT right_radius
            {
              OFFSET -25.15693 0.02248979 -1.271978
              CHANNELS 3 Zrotation Xrotation Yrotation
              End Site
              {
                OFFSET -15 0 0
              }
            }
          }
        }
      }
      JOINT left_manubrium
      {
        OFFSET 5.722621 16.35077 3.967754
        CHANNELS 3 Zrotation Xrotation Yrotation
        JOINT left_clavicle
        {
          OFFSET 13.16364 1.694482 -4.693211
          CHANNELS 3 Zrotation Xrotation Yrotation
          JOINT left_humerus
          {
            OFFSET 29.39168 -1.063119 -2.237045
            CHANNELS 3 Zrotation Xrotation Yrotation
            JOINT left_radius
            {
              OFFSET 24.59957 -0.9528479 0.9047498
              CHANNELS 3 Zrotation Xrotation Yrotation
              End Site
              {
                OFFSET 15 -0 -0
              }
            }
          }
        }
      }
    }
  }
}
MOTION
Frames: 11
Frame Time: 0.0416666666667
1418.447 94.96887 2649.018 4.180415 -2.362911 50.06764 1.831688 18.57586 4.575957 -0 21.3755 -0 1.09527 -11.74798 -0.3578646 0.3069642 -26.15806 -4.070288 -0 19.04772 -0 -5.656214 -7.346037 19.37487 -1.606255 -0.02832816 8.332959 -0.9158528 8.977118 -2.743873 1.903911 21.85578 5.254098 2.459487 -17.58686 6.454506 1.135456 -21.42683 10.63963 79.08138 24.98158 -3.747767 -0 0 24.68868 -24.25522 9.389752 15.24139 4.322173 -14.79322 -1.969206 -93.8712 23.05998 25.93333 0 0 -9.650254 -1.794566 5.805096 16.09556
1424.91 94.46244 2652.831 5.416912 -2.72864 50.03983 0.755891 19.06601 4.404059 -0 29.15648 -0 0.4309268 -6.310511 -0.8902307 -1.710136 -22.7772 -6.045294 -0 20.22321 -0 -5.216379 -7.820836 19.48807 -2.137121 -0.5448371 8.032205 -1.288178 9.212288 -2.469332 2.444892 22.28481 4.928406 2.418251 -17.59878 6.809518 0.2006181 -21.11437 10.28784 81.42536 22.95088 -4.739077 -0 0 23.72721 -24.41772 8.772239 14.62313 4.219975 -14.38333 -2.366739 -94.39222 22.88341 26.31908 0 0 -6.771428 -1.193236 6.978627 15.01377
1431.325 94.65927 2656.596 6.578401 -2.944198 50.48527 -0.03878165 17.21418 4.363269 -0 38.47103 -0 -0.4080954 -0.5338374 -1.776664 -3.536444 -18.52751 -7.570353 -0 22.74549 -0 -4.169439 -8.33481 19.07974 -2.73553 -0.9200836 7.610365 -1.493471 9.873654 -2.588553 2.63489 22.42308 4.746125 2.41022 -17.88963 6.916206 0.2197619 -20.71881 10.43652 83.57524 22.22476 -6.419235 -0 0 21.94961 -24.17339 8.917305 13.99781 3.909425 -14.65254 -2.979711 -94.05142 22.52073 26.16385 0 0 -5.683095 -0.3847988 7.728811 13.99749
1437.419 95.57651 2660.124 7.093244 -2.87698 51.31802 -0.3336497 13.16292 4.189256 -0 47.31515 -0 -0.9425576 3.349888 -2.77618 -4.852131 -14.28003 -8.328616 -0 24.51374 -0 -2.889904 -9.08096 18.32254 -3.23934 -0.9410324 7.029863 -1.374462 10.53544 -3.106082 2.345087 22.31114 4.932668 2.44482 -18.35007 6.838346 1.401442 -20.10867 10.93701 84.59025 23.43089 -8.127866 -0 0 19.66932 -23.60443 9.655312 13.70899 3.466032 -15.37673 -3.514949 -92.86712 22.31734 25.21131 0 0 -6.57198 0.1553309 7.713784 13.70389
1443.09 96.93383 2663.347 7.149916 -2.924032 52.38823 -0.06109962 7.613072 3.81005 -0 53.67494 -0 -1.115929 4.988696 -3.797573 -5.499438 -10.00835 -8.531052 -0 24.55729 -0 -1.9447 -10.12603 17.62955 -3.385924 -0.573466 6.169971 -1.047342 10.97784 -3.802295 1.908911 22.27539 5.319838 2.43171 -18.52464 6.808434 2.743195 -19.32625 11.38964 85.06519 25.13742 -9.583836 -0 0 17.43519 -22.96602 10.39624 13.57588 3.174946 -16.25431 -3.951964 -91.25751 22.22587 23.29515 0 0 -8.433108 0.5622187 7.507847 13.64516
1448.387 98.28717 2666.328 7.37765 -3.433355 53.5904 0.4792861 1.455895 3.314279 -0 56.44355 -0 -1.441772 5.351597 -4.771569 -5.566272 -5.162514 -8.599578 -0 23.09839 -0 -1.462615 -11.36607 17.11967 -3.098967 -0.04263066 4.983611 -0.7606086 11.19356 -4.490583 1.724939 22.59205 5.561133 2.267041 -18.09177 6.977966 3.015375 -18.56764 11.45249 86.17482 25.38351 -11.07061 -0 0 15.57963 -22.43966 10.68516 13.23147 3.217494 -17.17635 -4.501717 -89.52724 22.14929 20.46942 0 0 -10.48215 1.217399 7.848159 13.01154
1453.382 99.29213 2669.158 7.891897 -4.152455 54.82385 0.8416237 -4.56451 2.714574 -0 55.55764 -0 -2.25126 4.980069 -5.610669 -5.356863 0.1536371 -8.819378 -0 20.76288 -0 -1.351313 -12.77837 16.59472 -2.618884 0.4361109 3.653892 -0.5487638 11.13813 -5.129105 1.817428 23.18542 5.590358 2.00911 -17.319 7.282601 2.210287 -17.85995 11.14266 87.92429 24.09927 -12.77318 -0 0 13.9985 -21.99043 10.51406 12.62207 3.512311 -18.0985 -5.187809 -87.82545 22.33785 17.13924 0 0 -12.65868 1.920992 8.74733 12.01848
1458.139 99.81708 2671.915 8.174606 -4.591203 55.96024 0.9194298 -10.22117 2.100168 -0 51.63902 -0 -3.201782 3.876354 -6.303946 -5.090673 5.243362 -9.218332 -0 18.20505 -0 -1.644221 -14.42894 15.85941 -2.210095 0.7764731 2.490954 -0.2531584 10.79196 -5.775298 1.982369 23.67312 5.564737 1.810538 -16.7716 7.576408 1.2308 -17.13899 10.71105 89.43382 22.63369 -14.58046 -0 0 12.6595 -21.45442 10.22082 11.90476 3.91667 -18.92428 -5.754677 -86.35559 22.94893 13.98201 0 0 -14.92792 2.19029 9.719761 11.40253
1462.742 99.86291 2674.655 7.760324 -4.491809 56.90394 0.8893669 -15.58701 1.659944 -0 45.46777 -0 -3.804896 2.1104 -6.886829 -4.848196 9.545847 -9.670012 -0 16.00995 -0 -2.328668 -16.26694 14.86945 -1.996411 0.9651092 1.708391 0.2335754 10.22335 -6.488092 2.074517 23.74409 5.603795 1.759758 -16.77519 7.779285 0.7694359 -16.3844 10.34393 90.14758 22.10149 -16.41709 -0 0 11.64355 -20.68191 10.13057 11.17208 4.372293 -19.5925 -5.954864 -85.21226 23.8255 11.42104 0 0 -17.17442 1.930951 10.3291 11.39172
1467.301 99.49058 2677.437 6.599434 -3.865852 57.64893 0.9302748 -20.53476 1.504858 -0 37.82413 -0 -3.869423 0.09552999 -7.353265 -4.678846 12.82088 -9.99896 -0 14.65175 -0 -3.233462 -18.05745 13.71677 -2.003482 1.0098 1.364646 0.883274 9.563537 -7.250409 2.063681 23.33741 5.724603 1.861007 -17.32388 7.878557 0.9803451 -15.61987 10.10218 90.10969 22.8483 -18.23173 -0 0 10.90446 -19.67148 10.37252 10.4679 4.865543 -20.12456 -5.727745 -84.33279 24.6394 9.505814 0 0 -19.33249 1.4533 10.36504 11.67601
1471.951 98.78746 2680.329 5.069836 -2.915887 58.26438 1.085117 -24.53712 1.575163 -0 29.67376 -0 -3.463396 -1.52473 -7.68991 -4.631527 15.06144 -10.01752 -0 14.44804 -0 -4.140584 -19.44526 12.58049 -2.186252 0.9222768 1.397138 1.55187 8.983338 -7.954474 1.987846 22.62125 5.874293 2.058971 -18.15024 7.88092 1.618969 -14.89426 9.978031 89.74439 24.49161 -19.91106 -0 0 10.23282 -18.65357 10.88854 9.873898 5.379018 -20.60095 -5.213094 -83.56901 25.03685 8.040877 0 0 -21.38544 1.165313 9.841581 11.80989
